<?xml version="1.0" encoding="UTF-8" standalone="no"?>
<!DOCTYPE svg PUBLIC "-//W3C//DTD SVG 1.1//EN" "http://www.w3.org/Graphics/SVG/1.1/DTD/svg11.dtd">
<svg width="100%" height="100%" viewBox="0 0 24 24" version="1.1" xmlns="http://www.w3.org/2000/svg" xmlns:xlink="http://www.w3.org/1999/xlink" xml:space="preserve" xmlns:serif="http://www.serif.com/" style="fill-rule:evenodd;clip-rule:evenodd;stroke-linecap:round;stroke-linejoin:round;">
    <g transform="matrix(1.27778,0,0,1.27778,-3.33333,-3.33333)">
        <path d="M21,5.99L21,18.01C21,19.66 19.66,21 18.01,21L5.99,21C4.34,21 3,19.66 3,18.01L3,5.99C3,4.34 4.34,3 5.99,3L18.01,3C19.66,3 21,4.34 21,5.99Z" style="fill:rgb(165,102,0);"/>
    </g>
    <g>
        <path d="M15,3L15,21" style="fill:none;fill-rule:nonzero;stroke:rgb(255,226,166);stroke-width:2px;"/>
        <path d="M21,5L21,19C21,20.104 20.104,21 19,21L5,21C3.896,21 3,20.104 3,19L3,5C3,3.896 3.896,3 5,3L19,3C20.104,3 21,3.896 21,5Z" style="fill:none;stroke:rgb(255,226,166);stroke-width:2px;"/>
        <path d="M21,9L3,9" style="fill:none;fill-rule:nonzero;stroke:rgb(255,226,166);stroke-width:2px;"/>
        <path d="M21,15L3,15" style="fill:none;fill-rule:nonzero;stroke:rgb(255,226,166);stroke-width:2px;"/>
    </g>
</svg>
